<svg xmlns="http://www.w3.org/2000/svg" version="1.1" xmlns:xlink="http://www.w3.org/1999/xlink" xmlns:svgjs="http://svgjs.dev/svgjs" width="1500" height="234" viewBox="0 0 1500 234"><g transform="matrix(1,0,0,1,-0.9090909090909918,-0.15711888346866942)"><svg viewBox="0 0 396 62" data-background-color="#ffffff" preserveAspectRatio="xMidYMid meet" height="234" width="1500" xmlns="http://www.w3.org/2000/svg" xmlns:xlink="http://www.w3.org/1999/xlink"><g id="tight-bounds" transform="matrix(1,0,0,1,0.2400000000000091,0.0416297896369997)"><svg viewBox="0 0 395.52 61.91674042072602" height="61.91674042072602" width="395.52"><g><svg viewBox="0 0 652.0731476269714 102.078893145593" height="61.91674042072602" width="395.52"><g transform="matrix(1,0,0,1,256.5531476269714,25.365960858510785)"><svg viewBox="0 0 395.52 51.34697142857143" height="51.34697142857143" width="395.52"><g id="textblocktransform"><svg viewBox="0 0 395.52 51.34697142857143" height="51.34697142857143" width="395.52" id="textblock"><g><svg viewBox="0 0 395.52 51.34697142857143" height="51.34697142857143" width="395.52"><g transform="matrix(1,0,0,1,0,0)"><svg width="395.52" viewBox="1.9 -35.75 279.97 36.35" height="51.34697142857143" data-palette-color="#000000"><path d="M13.45 0.6L13.45 0.6Q9.9 0.6 7.3-1.07 4.7-2.75 3.3-5.65 1.9-8.55 1.9-12.3L1.9-12.3Q1.9-16 3.38-18.93 4.85-21.85 7.55-23.53 10.25-25.2 13.9-25.2L13.9-25.2Q17.25-25.2 19.65-23.55 22.05-21.9 23.25-19.6L23.25-19.6 19.4-18.2Q18.6-19.7 17.05-20.6 15.5-21.5 13.6-21.5L13.6-21.5Q11.75-21.5 10.1-20.53 8.45-19.55 7.45-17.53 6.45-15.5 6.45-12.35L6.45-12.35Q6.45-9.25 7.48-7.18 8.5-5.1 10.13-4.1 11.75-3.1 13.6-3.1L13.6-3.1Q15.65-3.1 17.18-4.03 18.7-4.95 19.5-6.35L19.5-6.35 23.35-4.95Q21.95-2.55 19.35-0.98 16.75 0.6 13.45 0.6ZM35.45 0.6L35.45 0.6Q33.1 0.6 31.15-0.25 29.2-1.1 28.05-2.7 26.9-4.3 26.9-6.55L26.9-6.55Q26.9-9.5 28.97-11.2 31.05-12.9 34.82-13.83 38.6-14.75 43.65-15.3L43.65-15.3Q43.75-18.45 42.4-20.15 41.05-21.85 38.05-21.85L38.05-21.85Q35.8-21.85 34.37-20.83 32.95-19.8 32.55-18L32.55-18 28.5-19.2Q29.5-22.05 32.07-23.63 34.65-25.2 38-25.2L38-25.2Q43.15-25.2 45.52-22.78 47.9-20.35 47.9-15.15L47.9-15.15 47.9-9.35Q47.9-6.25 48.15-4 48.4-1.75 48.75 0L48.75 0 44.9 0 43.9-3.4Q42.8-1.55 40.75-0.48 38.7 0.6 35.45 0.6ZM36.35-2.75L36.35-2.75Q38.3-2.75 40.05-3.45 41.8-4.15 42.9-5.83 44-7.5 44-10.4L44-10.4 44-11.95Q40.2-11.55 37.4-10.98 34.6-10.4 33.07-9.38 31.55-8.35 31.55-6.65L31.55-6.65Q31.55-4.9 32.82-3.83 34.1-2.75 36.35-2.75ZM59 0L54.8 0 54.8-24.8 57.84-24.8 59.2-20.2Q60.5-22.45 62.72-23.83 64.95-25.2 68.05-25.2L68.05-25.2 68.05-20.85Q67.7-20.85 67.32-20.85 66.95-20.85 66.59-20.8L66.59-20.8Q62.34-20.45 60.67-17.85 59-15.25 59-10.65L59-10.65 59 0ZM84.04 0.6L84.04 0.6Q81.14 0.6 79.14-0.58 77.14-1.75 75.99-3.75L75.99-3.75 74.89 0 71.79 0 71.79-33.4 75.99-33.4 75.99-20.9Q77.14-22.85 79.14-24.03 81.14-25.2 84.04-25.2L84.04-25.2Q86.89-25.2 89.32-23.68 91.74-22.15 93.22-19.28 94.69-16.4 94.69-12.3L94.69-12.3Q94.69-8.2 93.22-5.33 91.74-2.45 89.32-0.93 86.89 0.6 84.04 0.6ZM82.94-3L82.94-3Q86.14-3 88.07-5.45 89.99-7.9 89.99-12.3L89.99-12.3Q89.99-16.75 88.07-19.18 86.14-21.6 82.94-21.6L82.94-21.6Q79.74-21.6 77.82-19.18 75.89-16.75 75.89-12.3L75.89-12.3Q75.89-7.9 77.82-5.45 79.74-3 82.94-3ZM110.39 0.6L110.39 0.6Q108.24 0.6 106.14-0.15 104.04-0.9 102.31-2.48 100.59-4.05 99.54-6.5 98.49-8.95 98.49-12.3L98.49-12.3Q98.49-15.65 99.54-18.1 100.59-20.55 102.31-22.13 104.04-23.7 106.14-24.45 108.24-25.2 110.39-25.2L110.39-25.2Q112.54-25.2 114.67-24.45 116.79-23.7 118.52-22.13 120.24-20.55 121.27-18.1 122.29-15.65 122.29-12.3L122.29-12.3Q122.29-8.95 121.27-6.5 120.24-4.05 118.52-2.48 116.79-0.9 114.67-0.15 112.54 0.6 110.39 0.6ZM110.39-3.1L110.39-3.1Q112.19-3.1 113.89-4.08 115.59-5.05 116.69-7.08 117.79-9.1 117.79-12.3L117.79-12.3Q117.79-15.5 116.69-17.53 115.59-19.55 113.89-20.53 112.19-21.5 110.39-21.5L110.39-21.5Q108.64-21.5 106.92-20.53 105.19-19.55 104.09-17.53 102.99-15.5 102.99-12.3L102.99-12.3Q102.99-9.1 104.09-7.08 105.19-5.05 106.92-4.08 108.64-3.1 110.39-3.1ZM131.89 0L127.69 0 127.69-24.8 130.79-24.8 131.89-21.05Q132.94-22.8 134.84-24 136.74-25.2 139.89-25.2L139.89-25.2Q144.39-25.2 146.24-22.58 148.09-19.95 148.09-15.7L148.09-15.7 148.09 0 143.89 0 143.89-14.45Q143.89-16.35 143.54-17.98 143.19-19.6 142.01-20.6 140.84-21.6 138.44-21.6L138.44-21.6Q135.39-21.6 133.64-19.53 131.89-17.45 131.89-13.45L131.89-13.45 131.89 0ZM178.93 0.6L178.93 0.6Q175.38 0.6 172.78-1.07 170.18-2.75 168.78-5.65 167.38-8.55 167.38-12.3L167.38-12.3Q167.38-16 168.86-18.93 170.33-21.85 173.03-23.53 175.73-25.2 179.38-25.2L179.38-25.2Q182.73-25.2 185.13-23.55 187.53-21.9 188.73-19.6L188.73-19.6 184.88-18.2Q184.08-19.7 182.53-20.6 180.98-21.5 179.08-21.5L179.08-21.5Q177.23-21.5 175.58-20.53 173.93-19.55 172.93-17.53 171.93-15.5 171.93-12.35L171.93-12.35Q171.93-9.25 172.96-7.18 173.98-5.1 175.61-4.1 177.23-3.1 179.08-3.1L179.08-3.1Q181.13-3.1 182.66-4.03 184.18-4.95 184.98-6.35L184.98-6.35 188.83-4.95Q187.43-2.55 184.83-0.98 182.23 0.6 178.93 0.6ZM198.18 0L193.98 0 193.98-33.4 198.18-33.4 198.18-21.05Q199.23-22.8 201.13-24 203.03-25.2 206.18-25.2L206.18-25.2Q210.68-25.2 212.53-22.58 214.38-19.95 214.38-15.7L214.38-15.7 214.38 0 210.18 0 210.18-14.45Q210.18-16.35 209.83-17.98 209.48-19.6 208.31-20.6 207.13-21.6 204.73-21.6L204.73-21.6Q201.68-21.6 199.93-19.53 198.18-17.45 198.18-13.45L198.18-13.45 198.18 0ZM228.23 0.6L228.23 0.6Q225.88 0.6 223.93-0.25 221.98-1.1 220.83-2.7 219.68-4.3 219.68-6.55L219.68-6.55Q219.68-9.5 221.75-11.2 223.83-12.9 227.6-13.83 231.38-14.75 236.43-15.3L236.43-15.3Q236.53-18.45 235.18-20.15 233.83-21.85 230.83-21.85L230.83-21.85Q228.58-21.85 227.15-20.83 225.73-19.8 225.33-18L225.33-18 221.28-19.2Q222.28-22.05 224.85-23.63 227.43-25.2 230.78-25.2L230.78-25.2Q235.93-25.2 238.3-22.78 240.68-20.35 240.68-15.15L240.68-15.15 240.68-9.35Q240.68-6.25 240.93-4 241.18-1.75 241.53 0L241.53 0 237.68 0 236.68-3.4Q235.58-1.55 233.53-0.48 231.48 0.6 228.23 0.6ZM229.13-2.75L229.13-2.75Q231.08-2.75 232.83-3.45 234.58-4.15 235.68-5.83 236.78-7.5 236.78-10.4L236.78-10.4 236.78-11.95Q232.98-11.55 230.18-10.98 227.38-10.4 225.85-9.38 224.33-8.35 224.33-6.65L224.33-6.65Q224.33-4.9 225.6-3.83 226.88-2.75 229.13-2.75ZM251.88-29.5L251.88-29.5Q250.63-29.5 249.7-30.43 248.78-31.35 248.78-32.65L248.78-32.65Q248.78-33.95 249.7-34.85 250.63-35.75 251.88-35.75L251.88-35.75Q253.18-35.75 254.1-34.85 255.03-33.95 255.03-32.65L255.03-32.65Q255.03-31.35 254.1-30.43 253.18-29.5 251.88-29.5ZM253.98 0L249.78 0 249.78-21.45 246.33-21.45 246.33-24.8 253.98-24.8 253.98 0ZM265.67 0L261.47 0 261.47-24.8 264.57-24.8 265.67-21.05Q266.72-22.8 268.62-24 270.52-25.2 273.67-25.2L273.67-25.2Q278.17-25.2 280.02-22.58 281.87-19.95 281.87-15.7L281.87-15.7 281.87 0 277.67 0 277.67-14.45Q277.67-16.35 277.32-17.98 276.97-19.6 275.8-20.6 274.62-21.6 272.22-21.6L272.22-21.6Q269.17-21.6 267.42-19.53 265.67-17.45 265.67-13.45L265.67-13.45 265.67 0Z" opacity="1" transform="matrix(1,0,0,1,0,0)" fill="#000000" class="wordmark-text-0" data-fill-palette-color="primary" id="text-0"></path></svg></g></svg></g></svg></g></svg></g><g><svg viewBox="0 0 244.43135999999998 102.078893145593" height="102.078893145593" width="244.43135999999998"><g><svg xmlns="http://www.w3.org/2000/svg" xmlns:xlink="http://www.w3.org/1999/xlink" version="1.1" x="0" y="0" viewBox="0.5 28.792 99.00200000000001 41.345" enable-background="new 0 0 100 100" xml:space="preserve" height="102.078893145593" width="244.43135999999998" class="icon-icon-0" data-fill-palette-color="accent" id="icon-0"><circle fill="#000000" cx="21.172" cy="49.464" r="7.0" data-fill-palette-color="accent"></circle><circle fill="#000000" cx="78.828" cy="49.464" r="7.0" data-fill-palette-color="accent"></circle><path fill="#000000" d="M99.457 48.606c-0.453-11.016-9.502-19.814-20.629-19.814-2.979 0-5.804 0.643-8.362 1.777-0.008-0.001-0.016-0.003-0.023-0.004-5.47 2.749-12.158 5.269-19.942 5.269-7.762 0-15.113-1.989-20.699-5.241-0.052 0.01-0.103 0.021-0.154 0.03-2.588-1.166-5.451-1.831-8.474-1.831-11.133 0-20.186 8.808-20.63 19.832C0.516 48.902 0.5 49.183 0.5 49.464c0 0.275 0.016 0.551 0.042 0.825 0.437 11.031 9.492 19.848 20.631 19.848 2.647 0 5.17-0.517 7.497-1.424 0.012 0.003 0.023 0.006 0.035 0.008 0.059-0.028 0.119-0.057 0.178-0.085 0.833-0.336 1.639-0.721 2.414-1.158 5.129-2.452 11.022-5.051 17.918-5.051 7.568 0 14.097 2.374 19.608 5.121 0.263 0.146 0.536 0.273 0.805 0.407 0.232 0.119 0.466 0.238 0.694 0.358 0.012-0.002 0.023-0.005 0.035-0.007 2.588 1.166 5.45 1.83 8.473 1.83 11.134 0 20.186-8.809 20.63-19.834 0.026-0.278 0.042-0.558 0.042-0.839C99.5 49.177 99.483 48.891 99.457 48.606zM21.173 63.466c-7.733 0-14.001-6.27-14.001-14.003 0-7.73 6.269-14 14.001-14 7.731 0 13.999 6.27 13.999 14C35.172 57.196 28.905 63.466 21.173 63.466zM78.828 63.464c-7.73 0-14-6.267-14-14 0-7.729 6.27-14 14-14 7.733 0 14 6.271 14 14C92.828 57.197 86.562 63.464 78.828 63.464z" data-fill-palette-color="accent"></path></svg></g></svg></g></svg></g><defs></defs></svg><rect width="395.52" height="61.91674042072602" fill="none" stroke="none" visibility="hidden"></rect></g></svg></g></svg>